# WaveFront *.obj file (generated by Autodesk ATF)

mtllib Button.mtl

g Solido1

v -17.506289 -3.776730 -2.750000
v -17.506289 -3.776730 0.750000
v -17.506289 5.223271 -2.750000
v -17.506289 5.223271 0.750000
v -17.006289 -3.569623 1.250000
v -17.006289 5.016164 1.250000
v -15.506289 -5.776730 -2.750000
v -15.506289 -5.776730 0.750000
v -15.506289 7.223270 -2.750000
v -15.506289 7.223270 0.750000
v -15.353412 0.723270 1.250000
v -15.353412 0.723270 2.750000
v -15.299182 -5.276730 1.250000
v -15.299182 6.723270 1.250000
v -14.771008 -1.450291 1.250000
v -14.771008 -1.450291 2.750000
v -14.771008 2.896832 1.250000
v -14.771008 2.896832 2.750000
v -13.179851 -3.041449 1.250000
v -13.179851 -3.041449 2.750000
v -13.179851 4.487989 1.250000
v -13.179851 4.487989 2.750000
v -11.006289 -3.623853 1.250000
v -11.006289 -3.623853 2.750000
v -11.006289 5.070393 1.250000
v -11.006289 5.070393 2.750000
v -8.832727 -3.041449 1.250000
v -8.832727 -3.041449 2.750000
v -8.832727 4.487989 1.250000
v -8.832727 4.487989 2.750000
v -7.241570 -1.450291 1.250000
v -7.241570 -1.450291 2.750000
v -7.241570 2.896832 1.250000
v -7.241570 2.896832 2.750000
v -6.713396 -5.276730 1.250000
v -6.713396 6.723270 1.250000
v -6.659166 0.723270 1.250000
v -6.659166 0.723270 2.750000
v -6.506289 -5.776730 -2.750000
v -6.506289 -5.776730 0.750000
v -6.506289 7.223270 -2.750000
v -6.506289 7.223270 0.750000
v -5.006289 -3.569623 1.250000
v -5.006289 5.016164 1.250000
v -4.506289 -3.776730 -2.750000
v -4.506289 -3.776730 0.750000
v -4.506289 5.223271 -2.750000
v -4.506289 5.223271 0.750000
vt 0.035355 -0.754289 0.000000
vt 0.035355 0.104289 0.000000
vt -0.035355 0.125000 0.000000
vt -0.035355 -0.775000 0.000000
vt -0.040825 -0.118972 0.000000
vt 0.098560 0.078147 0.000000
vt 0.052782 0.135882 0.000000
vt -0.110517 -0.095058 0.000000
vt -0.754289 -0.035355 0.000000
vt 0.104289 -0.035355 0.000000
vt 0.125000 0.035355 0.000000
vt -0.775000 0.035355 0.000000
vt -0.098560 0.078147 0.000000
vt 0.040825 -0.118972 0.000000
vt 0.110517 -0.095058 0.000000
vt -0.052782 0.135882 0.000000
vt -0.035355 0.754289 0.000000
vt -0.035355 -0.104289 0.000000
vt 0.035355 -0.125000 0.000000
vt 0.035355 0.775000 0.000000
vt -0.052782 -0.135882 0.000000
vt 0.110517 0.095058 0.000000
vt 0.040825 0.118972 0.000000
vt -0.098560 -0.078147 0.000000
vt -0.125000 -0.035355 0.000000
vt 0.775000 -0.035355 0.000000
vt 0.754289 0.035355 0.000000
vt -0.104289 0.035355 0.000000
vt -0.110517 0.095058 0.000000
vt 0.052782 -0.135882 0.000000
vt 0.098560 -0.078147 0.000000
vt -0.040825 0.118972 0.000000
vt -0.350000 0.141421 0.000000
vt -0.350000 -0.141421 0.000000
vt 0.000000 -0.141421 0.000000
vt 0.000000 0.141421 0.000000
vt 1.100000 0.350000 0.000000
vt 0.200000 0.350000 0.000000
vt 0.200000 0.000000 0.000000
vt 1.100000 0.000000 0.000000
vt 0.350000 -0.141421 0.000000
vt 0.350000 0.141421 0.000000
vt 0.000000 0.141421 0.000000
vt 0.000000 -0.141421 0.000000
vt 1.100000 0.350000 0.000000
vt 0.200000 0.350000 0.000000
vt 0.200000 0.000000 0.000000
vt 1.100000 0.000000 0.000000
vt 0.434712 0.000000 0.000000
vt 0.376472 -0.217356 0.000000
vt 0.217356 -0.376472 0.000000
vt 0.000000 -0.434712 0.000000
vt -0.217356 -0.376472 0.000000
vt -0.376472 -0.217356 0.000000
vt -0.434712 0.000000 0.000000
vt -0.376472 0.217356 0.000000
vt -0.217356 0.376472 0.000000
vt 0.000000 0.434712 0.000000
vt 0.217356 0.376472 0.000000
vt 0.376472 0.217356 0.000000
vt -0.600000 0.429289 0.000000
vt -0.600000 -0.429289 0.000000
vt -0.429289 -0.600000 0.000000
vt 0.429289 -0.600000 0.000000
vt 0.600000 -0.429289 0.000000
vt 0.600000 0.429289 0.000000
vt 0.429289 0.600000 0.000000
vt -0.429289 0.600000 0.000000
vt 0.350000 -0.141421 0.000000
vt 0.350000 0.141421 0.000000
vt 0.000000 0.141421 0.000000
vt 0.000000 -0.141421 0.000000
vt 0.650000 0.450000 0.000000
vt 0.450000 0.650000 0.000000
vt -0.450000 0.650000 0.000000
vt -0.650000 0.450000 0.000000
vt -0.650000 -0.450000 0.000000
vt -0.450000 -0.650000 0.000000
vt 0.450000 -0.650000 0.000000
vt 0.650000 -0.450000 0.000000
vt 1.100000 0.350000 0.000000
vt 0.200000 0.350000 0.000000
vt 0.200000 0.000000 0.000000
vt 1.100000 0.000000 0.000000
vt -0.350000 0.141421 0.000000
vt -0.350000 -0.141421 0.000000
vt 0.000000 -0.141421 0.000000
vt 0.000000 0.141421 0.000000
vt 1.100000 0.350000 0.000000
vt 0.200000 0.350000 0.000000
vt 0.200000 0.000000 0.000000
vt 1.100000 0.000000 0.000000
vt -0.150000 1.365689 0.000000
vt -0.150000 1.138074 0.000000
vt -0.150000 0.910459 0.000000
vt -0.150000 0.682845 0.000000
vt -0.150000 0.455230 0.000000
vt -0.150000 0.227615 0.000000
vt -0.150000 0.000000 0.000000
vt -0.150000 -0.227615 0.000000
vt -0.150000 -0.455230 0.000000
vt -0.150000 -0.682845 0.000000
vt -0.150000 -0.910459 0.000000
vt -0.150000 -1.138074 0.000000
vt -0.000000 -1.365689 0.000000
vt -0.000000 -1.138074 0.000000
vt -0.000000 -0.910459 0.000000
vt -0.000000 -0.682845 0.000000
vt -0.000000 -0.455230 0.000000
vt -0.000000 -0.227615 0.000000
vt -0.000000 0.000000 0.000000
vt -0.000000 0.227615 0.000000
vt -0.000000 0.455230 0.000000
vt -0.000000 0.682845 0.000000
vt -0.000000 0.910459 0.000000
vt -0.000000 1.138074 0.000000
vt -0.000000 1.365689 0.000000
vt -0.150000 -1.365689 0.000000
vt 0.434712 0.000000 0.000000
vt 0.376472 0.217356 0.000000
vt 0.217356 0.376472 0.000000
vt 0.000000 0.434712 0.000000
vt -0.217356 0.376472 0.000000
vt -0.376472 0.217356 0.000000
vt -0.434712 0.000000 0.000000
vt -0.376472 -0.217356 0.000000
vt -0.217356 -0.376472 0.000000
vt 0.000000 -0.434712 0.000000
vt 0.217356 -0.376472 0.000000
vt 0.376472 -0.217356 0.000000
vn -0.070711 0.000000 0.070711
vn -0.070711 0.000000 0.070711
vn -0.070711 0.000000 0.070711
vn -0.070711 0.000000 0.070711
vn -0.050000 0.050000 0.070711
vn -0.050000 0.050000 0.070711
vn -0.050000 0.050000 0.070711
vn -0.050000 0.050000 0.070711
vn 0.000000 0.070711 0.070711
vn 0.000000 0.070711 0.070711
vn 0.000000 0.070711 0.070711
vn 0.000000 0.070711 0.070711
vn 0.050000 0.050000 0.070711
vn 0.050000 0.050000 0.070711
vn 0.050000 0.050000 0.070711
vn 0.050000 0.050000 0.070711
vn 0.070711 0.000000 0.070711
vn 0.070711 0.000000 0.070711
vn 0.070711 0.000000 0.070711
vn 0.070711 0.000000 0.070711
vn 0.050000 -0.050000 0.070711
vn 0.050000 -0.050000 0.070711
vn 0.050000 -0.050000 0.070711
vn 0.050000 -0.050000 0.070711
vn 0.000000 -0.070711 0.070711
vn 0.000000 -0.070711 0.070711
vn 0.000000 -0.070711 0.070711
vn 0.000000 -0.070711 0.070711
vn -0.050000 -0.050000 0.070711
vn -0.050000 -0.050000 0.070711
vn -0.050000 -0.050000 0.070711
vn -0.050000 -0.050000 0.070711
vn 0.070711 -0.070711 0.000000
vn 0.070711 -0.070711 0.000000
vn 0.070711 -0.070711 0.000000
vn 0.070711 -0.070711 0.000000
vn 0.000000 -0.100000 0.000000
vn 0.000000 -0.100000 0.000000
vn 0.000000 -0.100000 0.000000
vn 0.000000 -0.100000 0.000000
vn -0.070711 -0.070711 0.000000
vn -0.070711 -0.070711 0.000000
vn -0.070711 -0.070711 0.000000
vn -0.070711 -0.070711 0.000000
vn -0.100000 0.000000 0.000000
vn -0.100000 0.000000 0.000000
vn -0.100000 0.000000 0.000000
vn -0.100000 0.000000 0.000000
vn 0.000000 0.000000 0.100000
vn 0.000000 0.000000 0.100000
vn 0.000000 0.000000 0.100000
vn 0.000000 0.000000 0.100000
vn 0.000000 0.000000 0.100000
vn 0.000000 0.000000 0.100000
vn 0.000000 0.000000 0.100000
vn 0.000000 0.000000 0.100000
vn 0.000000 0.000000 0.100000
vn 0.000000 0.000000 0.100000
vn 0.000000 0.000000 0.100000
vn 0.000000 0.000000 0.100000
vn 0.000000 0.000000 0.100000
vn 0.000000 0.000000 0.100000
vn 0.000000 0.000000 0.100000
vn 0.000000 0.000000 0.100000
vn 0.000000 0.000000 0.100000
vn 0.000000 0.000000 0.100000
vn 0.000000 0.000000 0.100000
vn 0.000000 0.000000 0.100000
vn -0.070711 0.070711 0.000000
vn -0.070711 0.070711 0.000000
vn -0.070711 0.070711 0.000000
vn -0.070711 0.070711 0.000000
vn 0.000000 0.000000 -0.100000
vn 0.000000 0.000000 -0.100000
vn 0.000000 0.000000 -0.100000
vn 0.000000 0.000000 -0.100000
vn 0.000000 0.000000 -0.100000
vn 0.000000 0.000000 -0.100000
vn 0.000000 0.000000 -0.100000
vn 0.000000 0.000000 -0.100000
vn 0.100000 0.000000 0.000000
vn 0.100000 0.000000 0.000000
vn 0.100000 0.000000 0.000000
vn 0.100000 0.000000 0.000000
vn 0.070711 0.070711 0.000000
vn 0.070711 0.070711 0.000000
vn 0.070711 0.070711 0.000000
vn 0.070711 0.070711 0.000000
vn 0.000000 0.100000 0.000000
vn 0.000000 0.100000 0.000000
vn 0.000000 0.100000 0.000000
vn 0.000000 0.100000 0.000000
vn 0.100000 0.000000 0.000000
vn 0.086603 -0.050000 0.000000
vn 0.050000 -0.086603 0.000000
vn 0.000000 -0.100000 0.000000
vn -0.050000 -0.086603 0.000000
vn -0.086603 -0.050000 0.000000
vn -0.100000 0.000000 0.000000
vn -0.086603 0.050000 0.000000
vn -0.050000 0.086603 0.000000
vn 0.000000 0.100000 0.000000
vn 0.050000 0.086603 0.000000
vn 0.086603 0.050000 0.000000
vn 0.100000 0.000000 0.000000
vn 0.086603 0.050000 0.000000
vn 0.050000 0.086603 0.000000
vn 0.000000 0.100000 0.000000
vn -0.050000 0.086603 0.000000
vn -0.086603 0.050000 0.000000
vn -0.100000 0.000000 0.000000
vn -0.086603 -0.050000 0.000000
vn -0.050000 -0.086603 0.000000
vn 0.000000 -0.100000 0.000000
vn 0.050000 -0.086603 0.000000
vn 0.086603 -0.050000 0.000000
vn 0.100000 0.000000 0.000000
vn 0.100000 0.000000 0.000000
vn 0.000000 0.000000 0.100000
vn 0.000000 0.000000 0.100000
vn 0.000000 0.000000 0.100000
vn 0.000000 0.000000 0.100000
vn 0.000000 0.000000 0.100000
vn 0.000000 0.000000 0.100000
vn 0.000000 0.000000 0.100000
vn 0.000000 0.000000 0.100000
vn 0.000000 0.000000 0.100000
vn 0.000000 0.000000 0.100000
vn 0.000000 0.000000 0.100000
vn 0.000000 0.000000 0.100000
usemtl 191,191,191
f 5/1/1 6/2/2 2/4/4
f 2/4/4 6/2/2 4/3/3
f 14/6/6 10/7/7 6/5/5
f 6/5/5 10/7/7 4/8/8
f 14/9/9 36/10/10 10/12/12
f 10/12/12 36/10/10 42/11/11
f 36/13/13 44/14/14 42/16/16
f 42/16/16 44/14/14 48/15/15
f 43/18/18 46/19/19 44/17/17
f 44/17/17 46/19/19 48/20/20
f 46/22/22 43/23/23 40/21/21
f 40/21/21 43/23/23 35/24/24
f 8/25/25 40/26/26 13/28/28
f 13/28/28 40/26/26 35/27/27
f 2/29/29 8/30/30 5/32/32
f 5/32/32 8/30/30 13/31/31
f 40/34/34 39/35/35 46/33/33
f 46/33/33 39/35/35 45/36/36
f 40/37/37 8/38/38 39/40/40
f 39/40/40 8/38/38 7/39/39
f 2/42/42 1/43/43 8/41/41
f 8/41/41 1/43/43 7/44/44
f 2/45/45 4/46/46 1/48/48
f 1/48/48 4/46/46 3/47/47
f 31/50/50 43/65/65 37/49/49
f 37/49/49 43/65/65 44/66/66
f 37/49/49 44/66/66 33/60/60
f 33/60/60 44/66/66 29/59/59
f 29/59/59 44/66/66 36/67/67
f 29/59/59 36/67/67 25/58/58
f 25/58/58 36/67/67 14/68/68
f 25/58/58 14/68/68 21/57/57
f 21/57/57 14/68/68 6/61/61
f 21/57/57 6/61/61 17/56/56
f 17/56/56 6/61/61 11/55/55
f 11/55/55 6/61/61 5/62/62
f 11/55/55 5/62/62 15/54/54
f 15/54/54 5/62/62 19/53/53
f 19/53/53 5/62/62 13/63/63
f 19/53/53 13/63/63 23/52/52
f 23/52/52 13/63/63 35/64/64
f 23/52/52 35/64/64 27/51/51
f 27/51/51 35/64/64 43/65/65
f 27/51/51 43/65/65 31/50/50
f 10/70/70 9/71/71 4/69/69
f 4/69/69 9/71/71 3/72/72
f 9/74/74 41/75/75 3/73/73
f 3/73/73 41/75/75 1/80/80
f 1/80/80 41/75/75 47/76/76
f 1/80/80 47/76/76 7/79/79
f 7/79/79 47/76/76 45/77/77
f 7/79/79 45/77/77 39/78/78
f 48/81/81 46/82/82 47/84/84
f 47/84/84 46/82/82 45/83/83
f 48/86/86 47/87/87 42/85/85
f 42/85/85 47/87/87 41/88/88
f 10/89/89 42/90/90 9/92/92
f 9/92/92 42/90/90 41/91/91
f 32/94/94 31/116/116 38/93/93
f 38/93/93 31/116/116 37/117/117
f 38/118/118 37/105/105 34/104/104
f 34/104/104 37/105/105 33/106/106
f 34/104/104 33/106/106 30/103/103
f 30/103/103 33/106/106 29/107/107
f 30/103/103 29/107/107 26/102/102
f 26/102/102 29/107/107 25/108/108
f 26/102/102 25/108/108 22/101/101
f 22/101/101 25/108/108 21/109/109
f 22/101/101 21/109/109 18/100/100
f 18/100/100 21/109/109 17/110/110
f 18/100/100 17/110/110 12/99/99
f 12/99/99 17/110/110 11/111/111
f 12/99/99 11/111/111 16/98/98
f 16/98/98 11/111/111 15/112/112
f 16/98/98 15/112/112 20/97/97
f 20/97/97 15/112/112 19/113/113
f 20/97/97 19/113/113 24/96/96
f 24/96/96 19/113/113 23/114/114
f 24/96/96 23/114/114 28/95/95
f 28/95/95 23/114/114 27/115/115
f 28/95/95 27/115/115 32/94/94
f 32/94/94 27/115/115 31/116/116
f 34/120/120 18/124/124 38/119/119
f 38/119/119 18/124/124 12/125/125
f 38/119/119 12/125/125 32/130/130
f 32/130/130 12/125/125 16/126/126
f 32/130/130 16/126/126 28/129/129
f 28/129/129 16/126/126 20/127/127
f 28/129/129 20/127/127 24/128/128
f 18/124/124 34/120/120 22/123/123
f 22/123/123 34/120/120 30/121/121
f 22/123/123 30/121/121 26/122/122

g Solido1:1

v -15.897027 -0.316288 2.750000
v -15.897027 1.762829 2.750000
v -15.625686 0.723270 4.663417
v -15.226319 -1.155608 4.663417
v -15.226319 2.602149 4.663417
v -15.051374 -2.215656 2.750000
v -15.051374 3.662197 2.750000
v -14.541823 0.723270 6.285534
v -14.236160 -0.714761 6.285534
v -14.236160 2.161302 6.285534
v -14.097269 -2.709611 4.663417
v -14.097269 4.156152 4.663417
v -13.506289 -3.606857 2.750000
v -13.506289 5.053397 2.750000
v -13.372023 -1.904143 6.285534
v -13.372023 3.350684 6.285534
v -12.919706 0.723270 7.369398
v -12.754282 -0.054986 7.369398
v -12.754282 1.501527 7.369398
v -12.433761 -3.670038 4.663417
v -12.433761 5.116579 4.663417
v -12.286615 -0.698676 7.369398
v -12.286615 2.145216 7.369398
v -12.098829 -2.639222 6.285534
v -12.098829 4.085763 6.285534
v -11.597567 -1.096497 7.369398
v -11.597567 2.543038 7.369398
v -11.528931 -4.249339 2.750000
v -11.528931 5.695880 2.750000
v -11.006289 0.723270 7.750000
v -10.806282 -1.179665 7.369398
v -10.806282 2.626206 7.369398
v -10.636725 -2.792895 6.285534
v -10.636725 4.239436 6.285534
v -10.523430 -3.870822 4.663417
v -10.523430 5.317363 4.663417
v -10.049580 -0.933797 7.369398
v -10.049580 2.380338 7.369398
v -9.461204 -4.032012 2.750000
v -9.461204 5.478553 2.750000
v -9.458302 -0.401408 7.369398
v -9.458302 1.847949 7.369398
v -9.238522 -2.338592 6.285534
v -9.238522 3.785133 6.285534
v -9.134684 0.325449 7.369398
v -9.134684 1.121092 7.369398
v -8.696590 -3.277245 4.663417
v -8.696590 4.723786 4.663417
v -8.145982 -1.354864 6.285534
v -8.145982 2.801405 6.285534
v -7.660636 -2.992454 2.750000
v -7.660636 4.438994 2.750000
v -7.548015 -0.011808 6.285534
v -7.548015 1.458349 6.285534
v -7.269118 -1.991943 4.663417
v -7.269118 3.438484 4.663417
v -6.487836 -0.237156 4.663417
v -6.487836 1.683697 4.663417
v -6.438562 -1.310413 2.750000
v -6.438562 2.756954 2.750000
v -6.006289 0.723270 2.750000
vt -0.000000 0.000000 0.000000
vt -0.000000 0.148096 0.000000
vt -0.000000 0.296192 0.000000
vt -0.000000 0.444288 0.000000
vt -0.000000 0.592384 0.000000
vt -0.000000 0.740480 0.000000
vt -0.000000 0.888577 0.000000
vt -0.000000 -1.184769 0.000000
vt -0.000000 -1.036673 0.000000
vt -0.000000 -0.888577 0.000000
vt -0.000000 -0.740480 0.000000
vt -0.000000 -0.592384 0.000000
vt -0.000000 -0.444288 0.000000
vt -0.000000 -0.296192 0.000000
vt -0.000000 -0.148096 0.000000
vt -0.785398 1.110721 0.000000
vt -0.196350 1.110721 0.000000
vt -0.392699 1.110721 0.000000
vt -0.589049 1.110721 0.000000
vt -0.196350 0.074048 0.000000
vt -0.392699 0.074048 0.000000
vt -0.589049 0.074048 0.000000
vt -0.589049 -0.074048 0.000000
vt -0.392699 -0.074048 0.000000
vt -0.196350 -0.074048 0.000000
vt -0.196350 0.222144 0.000000
vt -0.392699 0.222144 0.000000
vt -0.589049 0.222144 0.000000
vt -0.196350 0.370240 0.000000
vt -0.392699 0.370240 0.000000
vt -0.589049 0.370240 0.000000
vt -0.196350 0.518336 0.000000
vt -0.392699 0.518336 0.000000
vt -0.589049 0.518336 0.000000
vt -0.196350 0.666432 0.000000
vt -0.392699 0.666432 0.000000
vt -0.589049 0.666432 0.000000
vt -0.196350 0.814529 0.000000
vt -0.392699 0.814529 0.000000
vt -0.589049 0.814529 0.000000
vt -0.196350 0.962625 0.000000
vt -0.392699 0.962625 0.000000
vt -0.589049 0.962625 0.000000
vt -0.196350 -0.962625 0.000000
vt -0.392699 -0.962625 0.000000
vt -0.589049 -0.962625 0.000000
vt -0.196350 -0.814529 0.000000
vt -0.392699 -0.814529 0.000000
vt -0.589049 -0.814529 0.000000
vt -0.196350 -0.666432 0.000000
vt -0.392699 -0.666432 0.000000
vt -0.589049 -0.666432 0.000000
vt -0.196350 -0.518336 0.000000
vt -0.392699 -0.518336 0.000000
vt -0.589049 -0.518336 0.000000
vt -0.196350 -0.370240 0.000000
vt -0.392699 -0.370240 0.000000
vt -0.589049 -0.370240 0.000000
vt -0.196350 -0.222144 0.000000
vt -0.392699 -0.222144 0.000000
vt -0.589049 -0.222144 0.000000
vt -0.196350 -1.110721 0.000000
vt -0.196350 -1.110721 0.000000
vt -0.000000 1.036673 0.000000
vt -0.000000 1.036673 0.000000
vt -0.785398 -1.110721 0.000000
vt -0.785398 -1.110721 0.000000
vt -0.785398 -1.110721 0.000000
vt -0.785398 -1.110721 0.000000
vt -0.785398 -1.110721 0.000000
vt -0.589049 1.258817 0.000000
vt -0.196350 -1.110721 0.000000
vt -0.392699 1.258817 0.000000
vt -0.392699 -1.110721 0.000000
vt -0.589049 1.258817 0.000000
vt -0.785398 -1.110721 0.000000
vt -0.500000 0.000000 0.000000
vt -0.456773 -0.203368 0.000000
vt -0.334565 -0.371572 0.000000
vt -0.154509 -0.475528 0.000000
vt 0.052264 -0.497261 0.000000
vt 0.250000 -0.433013 0.000000
vt 0.404509 -0.293893 0.000000
vt 0.489074 -0.103956 0.000000
vt 0.489074 0.103956 0.000000
vt 0.404509 0.293893 0.000000
vt 0.250000 0.433013 0.000000
vt 0.052264 0.497261 0.000000
vt -0.154509 0.475528 0.000000
vt -0.334565 0.371572 0.000000
vt -0.456773 0.203368 0.000000
vn 0.100000 0.000000 0.000000
vn 0.091355 0.040674 0.000000
vn 0.066913 0.074314 0.000000
vn 0.030902 0.095106 0.000000
vn -0.010453 0.099452 0.000000
vn -0.050000 0.086603 0.000000
vn -0.080902 0.058779 0.000000
vn -0.097815 0.020791 0.000000
vn -0.097815 -0.020791 0.000000
vn -0.080902 -0.058779 0.000000
vn -0.050000 -0.086603 0.000000
vn -0.010453 -0.099452 0.000000
vn 0.030902 -0.095106 0.000000
vn 0.066913 -0.074314 0.000000
vn 0.091355 -0.040674 0.000000
vn 0.000000 0.000000 0.100000
vn -0.092388 0.000000 0.038268
vn -0.070711 0.000000 0.070711
vn -0.038268 0.000000 0.092388
vn 0.090369 0.019209 0.038268
vn 0.069165 0.014702 0.070711
vn 0.037432 0.007956 0.092388
vn 0.037432 -0.007956 0.092388
vn 0.069165 -0.014702 0.070711
vn 0.090369 -0.019209 0.038268
vn 0.074743 0.054304 0.038268
vn 0.057206 0.041563 0.070711
vn 0.030960 0.022494 0.092388
vn 0.046194 0.080010 0.038268
vn 0.035355 0.061237 0.070711
vn 0.019134 0.033141 0.092388
vn 0.009657 0.091882 0.038268
vn 0.007391 0.070323 0.070711
vn 0.004000 0.038059 0.092388
vn -0.028549 0.087866 0.038268
vn -0.021851 0.067250 0.070711
vn -0.011826 0.036395 0.092388
vn -0.061820 0.068658 0.038268
vn -0.047315 0.052548 0.070711
vn -0.025607 0.028439 0.092388
vn -0.084401 0.037578 0.038268
vn -0.064597 0.028761 0.070711
vn -0.034960 0.015565 0.092388
vn -0.084401 -0.037578 0.038268
vn -0.064597 -0.028761 0.070711
vn -0.034960 -0.015565 0.092388
vn -0.061820 -0.068658 0.038268
vn -0.047315 -0.052548 0.070711
vn -0.025607 -0.028439 0.092388
vn -0.028549 -0.087866 0.038268
vn -0.021851 -0.067250 0.070711
vn -0.011826 -0.036395 0.092388
vn 0.009657 -0.091882 0.038268
vn 0.007391 -0.070323 0.070711
vn 0.004000 -0.038059 0.092388
vn 0.046194 -0.080010 0.038268
vn 0.035355 -0.061237 0.070711
vn 0.019134 -0.033141 0.092388
vn 0.074743 -0.054304 0.038268
vn 0.057206 -0.041563 0.070711
vn 0.030960 -0.022494 0.092388
vn -0.092388 0.000000 0.038268
vn -0.092388 0.000000 0.038268
vn -0.097815 0.020791 0.000000
vn -0.097815 0.020791 0.000000
vn 0.000000 0.000000 0.100000
vn 0.000000 0.000000 0.100000
vn 0.000000 0.000000 0.100000
vn 0.000000 0.000000 0.100000
vn 0.000000 0.000000 0.100000
vn -0.034960 -0.015565 0.092388
vn -0.092388 0.000000 0.038268
vn -0.064597 -0.028761 0.070711
vn -0.070711 0.000000 0.070711
vn -0.034960 -0.015565 0.092388
vn 0.000000 0.000000 0.100000
vn 0.000000 0.000000 -0.100000
vn 0.000000 0.000000 -0.100000
vn 0.000000 0.000000 -0.100000
vn 0.000000 0.000000 -0.100000
vn 0.000000 0.000000 -0.100000
vn 0.000000 0.000000 -0.100000
vn 0.000000 0.000000 -0.100000
vn 0.000000 0.000000 -0.100000
vn 0.000000 0.000000 -0.100000
vn 0.000000 0.000000 -0.100000
vn 0.000000 0.000000 -0.100000
vn 0.000000 0.000000 -0.100000
vn 0.000000 0.000000 -0.100000
vn 0.000000 0.000000 -0.100000
vn 0.000000 0.000000 -0.100000
f 108/132/132 106/150/150 109/131/131
f 109/131/131 106/150/150 105/155/155
f 109/131/131 105/155/155 107/145/145
f 107/145/145 105/155/155 103/189/189
f 107/145/145 103/189/189 99/144/144
f 99/144/144 103/189/189 95/186/186
f 99/144/144 95/186/186 87/143/143
f 87/143/143 95/186/186 83/183/183
f 87/143/143 83/183/183 76/142/142
f 76/142/142 83/183/183 68/180/180
f 76/142/142 68/180/180 61/141/141
f 61/141/141 68/180/180 59/177/177
f 61/141/141 59/177/177 54/140/140
f 54/140/140 59/177/177 52/174/174
f 54/140/140 52/174/174 49/139/139
f 49/139/139 52/174/174 51/192/192
f 49/139/139 51/193/193 50/138/138
f 50/194/194 51/147/147 53/171/171
f 50/195/195 53/171/171 55/137/137
f 55/137/137 53/171/171 60/168/168
f 55/137/137 60/168/168 62/136/136
f 62/136/136 60/168/168 69/165/165
f 62/136/136 69/165/165 77/135/135
f 77/135/135 69/165/165 84/162/162
f 77/135/135 84/162/162 88/134/134
f 88/134/134 84/162/162 96/159/159
f 88/134/134 96/159/159 100/133/133
f 100/133/133 96/159/159 104/156/156
f 100/133/133 104/156/156 108/132/132
f 108/132/132 104/156/156 106/150/150
f 65/149/149 78/146/146 67/173/173
f 67/173/173 78/146/146 71/170/170
f 71/170/170 78/146/146 75/167/167
f 75/167/167 78/146/146 80/164/164
f 80/164/164 78/146/146 86/161/161
f 90/158/158 78/146/146 94/152/152
f 94/152/152 78/146/146 93/153/153
f 93/153/153 78/196/196 89/191/191
f 89/191/191 78/197/197 85/188/188
f 79/185/185 78/198/198 74/182/182
f 74/182/182 78/199/199 70/179/179
f 70/179/179 78/200/200 66/176/176
f 66/201/201 78/146/146 65/149/149
f 51/147/147 56/148/148 53/171/171
f 53/171/171 56/148/148 58/172/172
f 53/171/171 58/172/172 60/168/168
f 60/168/168 58/172/172 64/169/169
f 60/168/168 64/169/169 69/165/165
f 69/165/165 64/169/169 73/166/166
f 69/165/165 73/166/166 84/162/162
f 84/162/162 73/166/166 82/163/163
f 84/162/162 82/163/163 96/159/159
f 96/159/159 82/163/163 92/160/160
f 96/159/159 92/160/160 104/156/156
f 104/156/156 92/160/160 98/157/157
f 104/156/156 98/157/157 106/150/150
f 106/150/150 98/157/157 102/151/151
f 106/150/150 102/151/151 105/155/155
f 105/155/155 102/151/151 101/154/154
f 105/155/155 101/154/154 103/189/189
f 103/189/189 101/154/154 97/190/190
f 103/189/189 97/190/190 95/186/186
f 95/186/186 97/190/190 91/187/187
f 95/186/186 91/187/187 83/183/183
f 83/183/183 91/187/187 81/184/184
f 83/183/183 81/184/184 68/180/180
f 68/180/180 81/184/184 72/181/181
f 68/180/180 72/181/181 59/177/177
f 59/177/177 72/181/181 63/178/178
f 59/177/177 63/178/178 52/174/174
f 52/174/174 63/178/178 57/175/175
f 52/174/174 57/175/175 51/202/202
f 51/147/147 57/203/203 56/148/148
f 56/148/148 65/149/149 58/172/172
f 58/172/172 65/149/149 67/173/173
f 58/172/172 67/173/173 64/169/169
f 64/169/169 67/173/173 71/170/170
f 64/169/169 71/170/170 73/166/166
f 73/166/166 71/170/170 75/167/167
f 73/166/166 75/167/167 82/163/163
f 82/163/163 75/167/167 80/164/164
f 82/163/163 80/164/164 92/160/160
f 92/160/160 80/164/164 86/161/161
f 92/160/160 86/161/161 98/157/157
f 98/157/157 86/161/161 90/158/158
f 98/157/157 90/158/158 102/151/151
f 102/151/151 90/158/158 94/152/152
f 102/151/151 94/152/152 101/154/154
f 101/154/154 94/152/152 93/153/153
f 101/154/154 93/153/153 97/190/190
f 97/190/190 93/153/153 89/191/191
f 97/190/190 89/191/191 91/187/187
f 91/187/187 89/191/191 85/188/188
f 91/187/187 85/188/188 81/184/184
f 81/184/184 85/188/188 79/185/185
f 81/184/184 79/185/185 72/181/181
f 72/181/181 79/185/185 74/182/182
f 72/181/181 74/182/182 63/178/178
f 63/178/178 74/182/182 70/179/179
f 63/178/178 70/179/179 57/175/175
f 57/175/175 70/179/179 66/176/176
f 57/175/175 66/176/176 56/204/204
f 56/148/148 66/205/205 65/149/149
f 85/188/188 78/206/206 79/185/185
f 86/161/161 78/146/146 90/158/158
f 109/207/207 107/208/208 108/221/221
f 108/221/221 107/208/208 100/220/220
f 100/220/220 107/208/208 99/209/209
f 100/220/220 99/209/209 88/219/219
f 88/219/219 99/209/209 87/210/210
f 88/219/219 87/210/210 77/218/218
f 77/218/218 87/210/210 76/211/211
f 77/218/218 76/211/211 62/217/217
f 62/217/217 76/211/211 61/212/212
f 62/217/217 61/212/212 55/216/216
f 55/216/216 61/212/212 54/213/213
f 55/216/216 54/213/213 50/215/215
f 50/215/215 54/213/213 49/214/214

# 109 vertices
# 221 texture params
# 221 normals
# 210 facets

# 2 groups
