# WaveFront *.obj file (generated by Autodesk ATF)

mtllib Rock path.mtl

g Solido1

v 0.429401 5.984615 0.000000
v 0.429401 5.984615 6.000000
v 2.603520 36.285570 0.000000
v 2.603520 36.285570 6.000000
v 4.543771 7.435290 10.000000
v 6.000000 0.000000 0.000000
v 6.000000 0.000000 6.000000
v 6.484652 34.485576 10.000000
v 7.741408 4.000000 10.000000
v 9.025818 42.562046 0.000000
v 9.025818 42.562046 6.000000
v 10.736213 38.640604 10.000000
v 29.888935 39.573367 10.000000
v 31.349254 43.649225 0.000000
v 31.349254 43.649225 6.000000
v 31.767981 4.000000 10.000000
v 33.482139 0.000000 0.000000
v 33.482139 0.000000 6.000000
v 33.719344 36.098723 10.000000
v 35.111630 7.510451 10.000000
v 37.634013 37.948191 0.000000
v 37.634013 37.948191 6.000000
v 39.190278 5.992897 0.000000
v 39.190278 5.992897 6.000000
vt 0.157955 -2.468709 0.000000
vt 0.295372 0.239790 0.000000
vt -0.261897 0.420021 0.000000
vt -0.415827 -2.613962 0.000000
vt 0.134726 -0.296306 0.000000
vt 0.483201 0.185322 0.000000
vt 0.113858 0.639874 0.000000
vt -0.412539 -0.087661 0.000000
vt -1.744556 -0.403667 0.000000
vt 0.168455 -0.271911 0.000000
vt 0.294880 0.303822 0.000000
vt -1.934828 0.150253 0.000000
vt -0.467022 0.139061 0.000000
vt -0.149079 -0.268816 0.000000
vt 0.398934 -0.051713 0.000000
vt -0.122733 0.617513 0.000000
vt -0.370248 2.533260 0.000000
vt -0.271741 -0.327260 0.000000
vt 0.299509 -0.479105 0.000000
vt 0.189400 2.718316 0.000000
vt -0.046049 -0.574694 0.000000
vt 0.416285 0.111763 0.000000
vt -0.148664 0.285592 0.000000
vt -0.419485 -0.116514 0.000000
vt -0.407152 -0.282843 0.000000
vt 2.341062 -0.282843 0.000000
vt 2.169646 0.282843 0.000000
vt -0.233011 0.282843 0.000000
vt -0.418416 0.121250 0.000000
vt 0.031092 -0.561696 0.000000
vt 0.407871 -0.105228 0.000000
vt 0.149844 0.286796 0.000000
vt -0.600000 0.413817 0.000000
vt -0.600000 -0.413817 0.000000
vt 0.000000 -0.413817 0.000000
vt 0.000000 0.413817 0.000000
vt 3.348214 0.600000 0.000000
vt 0.600000 0.600000 0.000000
vt 0.600000 0.000000 0.000000
vt 3.348214 0.000000 0.000000
vt 0.600000 -0.408801 0.000000
vt 0.600000 0.408801 0.000000
vt 0.000000 0.408801 0.000000
vt 0.000000 -0.408801 0.000000
vt 3.637885 0.600000 0.000000
vt 0.600000 0.600000 0.000000
vt 0.600000 0.000000 0.000000
vt 3.637885 0.000000 0.000000
vt -1.365839 1.361901 0.000000
vt -1.559927 -1.343128 0.000000
vt -1.240164 -1.686657 0.000000
vt 1.162494 -1.686657 0.000000
vt 1.496859 -1.335612 0.000000
vt 1.357630 1.523216 0.000000
vt 0.974589 1.870680 0.000000
vt -0.940683 1.777404 0.000000
vt 1.414304 -2.086657 0.000000
vt 1.971364 -1.488195 0.000000
vt 1.753952 1.541900 0.000000
vt 1.111723 2.169548 0.000000
vt -1.120621 2.278266 0.000000
vt -1.749097 1.708162 0.000000
vt -1.904723 -1.487367 0.000000
vt -1.333910 -2.086657 0.000000
vt 3.799317 0.600000 0.000000
vt 0.600000 0.600000 0.000000
vt 0.600000 0.000000 0.000000
vt 3.799317 0.000000 0.000000
vt 0.600000 -0.448999 0.000000
vt 0.600000 0.448999 0.000000
vt 0.000000 0.448999 0.000000
vt 0.000000 -0.448999 0.000000
vt -0.600000 0.424264 0.000000
vt -0.600000 -0.424264 0.000000
vt 0.000000 -0.424264 0.000000
vt 0.000000 0.424264 0.000000
vt 2.834990 0.600000 0.000000
vt 0.600000 0.600000 0.000000
vt 0.600000 0.000000 0.000000
vt 2.834990 0.000000 0.000000
vn -0.070529 0.005061 0.070711
vn -0.070529 0.005061 0.070711
vn -0.070529 0.005061 0.070711
vn -0.070529 0.005061 0.070711
vn -0.049423 0.050571 0.070711
vn -0.049423 0.050571 0.070711
vn -0.049423 0.050571 0.070711
vn -0.049423 0.050571 0.070711
vn -0.003440 0.070627 0.070711
vn -0.003440 0.070627 0.070711
vn -0.003440 0.070627 0.070711
vn -0.003440 0.070627 0.070711
vn 0.047509 0.052373 0.070711
vn 0.047509 0.052373 0.070711
vn 0.047509 0.052373 0.070711
vn 0.047509 0.052373 0.070711
vn 0.070627 0.003440 0.070711
vn 0.070627 0.003440 0.070711
vn 0.070627 0.003440 0.070711
vn 0.070627 0.003440 0.070711
vn 0.051202 -0.048769 0.070711
vn 0.051202 -0.048769 0.070711
vn 0.051202 -0.048769 0.070711
vn 0.051202 -0.048769 0.070711
vn 0.000000 -0.070711 0.070711
vn 0.000000 -0.070711 0.070711
vn 0.000000 -0.070711 0.070711
vn 0.000000 -0.070711 0.070711
vn -0.051758 -0.048178 0.070711
vn -0.051758 -0.048178 0.070711
vn -0.051758 -0.048178 0.070711
vn -0.051758 -0.048178 0.070711
vn 0.072410 -0.068969 0.000000
vn 0.072410 -0.068969 0.000000
vn 0.072410 -0.068969 0.000000
vn 0.072410 -0.068969 0.000000
vn 0.000000 -0.100000 0.000000
vn 0.000000 -0.100000 0.000000
vn 0.000000 -0.100000 0.000000
vn 0.000000 -0.100000 0.000000
vn -0.073197 -0.068133 0.000000
vn -0.073197 -0.068133 0.000000
vn -0.073197 -0.068133 0.000000
vn -0.073197 -0.068133 0.000000
vn -0.099744 0.007157 0.000000
vn -0.099744 0.007157 0.000000
vn -0.099744 0.007157 0.000000
vn -0.099744 0.007157 0.000000
vn 0.000000 0.000000 0.100000
vn 0.000000 0.000000 0.100000
vn 0.000000 0.000000 0.100000
vn 0.000000 0.000000 0.100000
vn 0.000000 0.000000 0.100000
vn 0.000000 0.000000 0.100000
vn 0.000000 0.000000 0.100000
vn 0.000000 0.000000 0.100000
vn 0.000000 0.000000 -0.100000
vn 0.000000 0.000000 -0.100000
vn 0.000000 0.000000 -0.100000
vn 0.000000 0.000000 -0.100000
vn 0.000000 0.000000 -0.100000
vn 0.000000 0.000000 -0.100000
vn 0.000000 0.000000 -0.100000
vn 0.000000 0.000000 -0.100000
vn 0.099882 0.004864 0.000000
vn 0.099882 0.004864 0.000000
vn 0.099882 0.004864 0.000000
vn 0.099882 0.004864 0.000000
vn -0.069894 0.071518 0.000000
vn -0.069894 0.071518 0.000000
vn -0.069894 0.071518 0.000000
vn -0.069894 0.071518 0.000000
vn 0.067187 0.074067 0.000000
vn 0.067187 0.074067 0.000000
vn 0.067187 0.074067 0.000000
vn 0.067187 0.074067 0.000000
vn -0.004864 0.099882 0.000000
vn -0.004864 0.099882 0.000000
vn -0.004864 0.099882 0.000000
vn -0.004864 0.099882 0.000000
usemtl 191,191,191
f 8/2/2 4/3/3 5/1/1
f 5/1/1 4/3/3 2/4/4
f 8/5/5 12/6/6 4/8/8
f 4/8/8 12/6/6 11/7/7
f 12/9/9 13/10/10 11/12/12
f 11/12/12 13/10/10 15/11/11
f 19/14/14 22/15/15 13/13/13
f 13/13/13 22/15/15 15/16/16
f 19/17/17 20/18/18 22/20/20
f 22/20/20 20/18/18 24/19/19
f 24/22/22 20/23/23 18/21/21
f 18/21/21 20/23/23 16/24/24
f 7/25/25 18/26/26 9/28/28
f 9/28/28 18/26/26 16/27/27
f 2/29/29 7/30/30 5/32/32
f 5/32/32 7/30/30 9/31/31
f 18/34/34 17/35/35 24/33/33
f 24/33/33 17/35/35 23/36/36
f 18/37/37 7/38/38 17/40/40
f 17/40/40 7/38/38 6/39/39
f 2/42/42 1/43/43 7/41/41
f 7/41/41 1/43/43 6/44/44
f 2/45/45 4/46/46 1/48/48
f 1/48/48 4/46/46 3/47/47
f 5/50/50 9/51/51 8/49/49
f 8/49/49 9/51/51 16/52/52
f 8/49/49 16/52/52 12/56/56
f 12/56/56 16/52/52 19/54/54
f 12/56/56 19/54/54 13/55/55
f 16/52/52 20/53/53 19/54/54
f 1/58/58 3/59/59 6/57/57
f 6/57/57 3/59/59 17/64/64
f 17/64/64 3/59/59 10/60/60
f 17/64/64 10/60/60 23/63/63
f 23/63/63 10/60/60 21/62/62
f 21/62/62 10/60/60 14/61/61
f 22/65/65 24/66/66 21/68/68
f 21/68/68 24/66/66 23/67/67
f 11/70/70 10/71/71 4/69/69
f 4/69/69 10/71/71 3/72/72
f 22/74/74 21/75/75 15/73/73
f 15/73/73 21/75/75 14/76/76
f 11/77/77 15/78/78 10/80/80
f 10/80/80 15/78/78 14/79/79

# 24 vertices
# 80 texture params
# 80 normals
# 44 facets

# 1 groups
